# xmcd
#
# Track frame offsets:
#	150
#	19650
#	37780
#	57606
#	66814
#	82091
#	98161
#	116332
#	130355
#	143367
#	166497
#	178501
#	198003
#	211554
# Disc length: 3008 seconds
# Revision: 1
# Processed by: cddbd v1.5.2PL0 Copyright (c) Steve Scherf et al.
#
# Submitted via: libkcddb 0.31
#
DISCID=b20bbe0e
DTITLE=Boizinho Barrica - Caixinha de Segredos
DYEAR=1900
DGENRE=
TTITLE0=Inácio Pinheiro - Turma de São Benedito
TTITLE1=Roberto Brandão - Garota
TTITLE2=Inácio Pinheiro - Lua Cheia
TTITLE3=Vocais e Godão - Leonardo
TTITLE4=Inácio Pinheiro - Coxinho
TTITLE5=Roberto Brandão - Diamantina
TTITLE6=Inácio Pinheiro - Caixinha de Segredos
TTITLE7=Roberto Brandão - Voa Maracanã
TTITLE8=Roberto Brandão-Inácio Pinheiro - Tainahakã
TTITLE9=Inácio Pinheiro - Canto de Luz
TTITLE10=Roberto Brandão - Inácio Pinheiro - Raio de Luz
TTITLE11=Roberto Brandão - Amanheceu - Chegança
TTITLE12=Inácio Pinheiro - Clareou Terreiro
TTITLE13=Roberto Brandão - Lá Vai Boi Vaquejajô
EXTD=
EXTT0=José Pereira Godão
EXTT1=Luis Bulcão
EXTT2=Luis Bulcão
EXTT3=Godão e Bulcão
EXTT4=Juca do Bolo
EXTT5=Luis Bulcão
EXTT6=José Pereira Godão
EXTT7=Luis Bulcão
EXTT8=Godão e Bulcão
EXTT9=José Pereira Godão
EXTT10=José Pereira Godão
EXTT11=José Pereira Godão
EXTT12=José Pereira Godão
EXTT13=Luis Bulcão
PLAYORDER=
